<svg width="12" height="4" viewBox="0 0 12 4" fill="none" xmlns="http://www.w3.org/2000/svg">
<path d="M2.0874 3.08789C1.42822 3.08789 0.908203 2.56055 0.908203 1.90869C0.908203 1.24951 1.42822 0.729492 2.0874 0.729492C2.73926 0.729492 3.2666 1.24951 3.2666 1.90869C3.2666 2.56055 2.73926 3.08789 2.0874 3.08789ZM6.03721 3.08789C5.37803 3.08789 4.85801 2.56055 4.85801 1.90869C4.85801 1.24951 5.37803 0.729492 6.03721 0.729492C6.68906 0.729492 7.21641 1.24951 7.21641 1.90869C7.21641 2.56055 6.68906 3.08789 6.03721 3.08789ZM9.98701 3.08789C9.32783 3.08789 8.80781 2.56055 8.80781 1.90869C8.80781 1.24951 9.32783 0.729492 9.98701 0.729492C10.6389 0.729492 11.1662 1.24951 11.1662 1.90869C11.1662 2.56055 10.6389 3.08789 9.98701 3.08789Z" fill="#525252"/>
</svg>
